<svg xmlns="http://www.w3.org/2000/svg" height="440.65" width="670.57"><defs><marker id="a" orient="auto" overflow="visible"><path d="M0-2.828L-2.828 0 0 2.828 2.828 0 0-2.828z" fill-rule="evenodd" stroke="#000" stroke-width=".4pt" fill="#fff"/></marker></defs><path d="M50.929 354.661h-10.08m10.08-43.84h-10.08m10.08-43.43h-10.08m10.08-43.88h-10.08m10.08-43.26h-10.08m30.08-43.94h-30.08m40.084-43.76H40.849m410.084-65.54H80.853m570.08 21.88H40.849m69.304 349.56v-10.08m68.48 10.08v-10.08m68.49 10.08v-10.08m68.97 10.08v-10.08m68.58 10.08v-10.08m68.46 10.08v-10.08m67.72 10.08v-10.08m68.46 10.08v-10.08" stroke="#b3b3b3" stroke-linecap="square" stroke-miterlimit="10" stroke-width=".8" fill="none"/><g font-family="Bitstream Vera Sans"><text font-size="12" y="55.442" x="634.38" transform="translate(-21.38 -14.897)"><tspan style="text-align:end" font-size="16" y="55.442" x="634.38" font-family="Arial" text-anchor="end">U</tspan></text><text font-size="7.053" y="50.564" x="634.89" transform="translate(-21.38 -14.897)"><tspan font-size="9.404" y="50.564" x="634.89" font-family="Arial">235</tspan></text></g><path d="M584.123 68.971l24.5-11.5m-31.5 10.5l22.5-31.5" stroke="#666" stroke-linecap="round" fill="none"/><g font-family="Bitstream Vera Sans"><text font-size="12" y="55.442" x="634.38" transform="translate(-11.38 7.103)"><tspan style="text-align:end" font-size="16" y="55.442" x="634.38" font-family="Arial" text-anchor="end">U</tspan></text><text font-size="7.053" y="50.564" x="634.89" transform="translate(-11.38 7.103)"><tspan font-size="9.404" y="50.564" x="634.89" font-family="Arial">238</tspan></text></g><g font-family="Bitstream Vera Sans"><text font-size="12" y="55.442" x="634.38" transform="translate(-438.997 -11.891)"><tspan style="text-align:end" font-size="16" y="55.442" x="634.38" font-family="Arial" text-anchor="end">Fe</tspan></text><text font-size="7.053" y="50.564" x="634.89" transform="translate(-438.997 -11.891)"><tspan font-size="9.404" y="50.564" x="634.89" font-family="Arial">56</tspan></text></g><path d="M168.553 15.321l6.925 20.216" stroke="#666" stroke-linecap="round" fill="none"/><g font-family="Bitstream Vera Sans"><text font-size="12" y="55.442" x="634.38" transform="translate(-566.997 -13.891)"><tspan style="text-align:end" font-size="16" y="55.442" x="634.38" font-family="Arial" text-anchor="end">O</tspan></text><text font-size="7.053" y="50.564" x="634.89" transform="translate(-566.997 -13.891)"><tspan font-size="9.404" y="50.564" x="634.89" font-family="Arial">16</tspan></text></g><path d="M69.454 40.501l8.098 10.438" stroke="#666" stroke-linecap="round" fill="none"/><g font-family="Bitstream Vera Sans"><text font-size="12" y="55.442" x="634.38" transform="translate(-578.997 2.109)"><tspan style="text-align:end" font-size="16" y="55.442" x="634.38" font-family="Arial" text-anchor="end">C</tspan></text><text font-size="7.053" y="50.564" x="634.89" transform="translate(-578.997 2.109)"><tspan font-size="9.404" y="50.564" x="634.89" font-family="Arial">12</tspan></text></g><path d="M56.716 56.061l11.272 7.7" stroke="#666" stroke-linecap="round" fill="none"/><g font-family="Bitstream Vera Sans"><text font-size="12" y="55.442" x="634.38" transform="translate(-488.267 37.731) scale(.86497)"><tspan style="text-align:end" font-size="16" y="55.442" x="634.38" font-family="Arial" text-anchor="end">He</tspan></text><text font-size="7.053" y="50.564" x="634.89" transform="translate(-488.267 37.731) scale(.86497)"><tspan font-size="9.404" y="50.564" x="634.89" font-family="Arial">4</tspan></text></g><g font-family="Bitstream Vera Sans"><text font-size="12" y="55.442" x="634.38" transform="translate(-562.997 122.111)"><tspan style="text-align:end" font-size="16" y="55.442" x="634.38" font-family="Arial" text-anchor="end">Li</tspan></text><text font-size="7.053" y="50.564" x="634.89" transform="translate(-562.997 122.111)"><tspan font-size="9.404" y="50.564" x="634.89" font-family="Arial">6</tspan></text></g><g font-family="Bitstream Vera Sans"><text font-size="12" y="55.442" x="634.38" transform="translate(-560.997 104.111)"><tspan style="text-align:end" font-size="16" y="55.442" x="634.38" font-family="Arial" text-anchor="end">Li</tspan></text><text font-size="7.053" y="50.564" x="634.89" transform="translate(-560.997 104.111)"><tspan font-size="9.404" y="50.564" x="634.89" font-family="Arial">7</tspan></text></g><g font-family="Bitstream Vera Sans"><text font-size="12" y="55.442" x="634.38" transform="translate(-558.997 238.111)"><tspan style="text-align:end" font-size="16" y="55.442" x="634.38" font-family="Arial" text-anchor="end">He</tspan></text><text font-size="7.053" y="50.564" x="634.89" transform="translate(-558.997 238.111)"><tspan font-size="9.404" y="50.564" x="634.89" font-family="Arial">3</tspan></text></g><g font-family="Bitstream Vera Sans"><text font-size="12" y="55.442" x="634.38" transform="translate(-567.897 224.111)"><tspan style="text-align:end" font-size="16" y="55.442" x="634.38" font-family="Arial" text-anchor="end">H</tspan></text><text font-size="7.053" y="50.564" x="634.89" transform="translate(-567.897 224.111)"><tspan font-size="9.404" y="50.564" x="634.89" font-family="Arial">3</tspan></text></g><g font-family="Bitstream Vera Sans"><text font-size="12" y="55.442" x="634.38" transform="translate(-572.997 300.111)"><tspan style="text-align:end" font-size="16" y="55.442" x="634.38" font-family="Arial" text-anchor="end">H</tspan></text><text font-size="7.053" y="50.564" x="634.89" transform="translate(-572.997 300.111)"><tspan font-size="9.404" y="50.564" x="634.89" font-family="Arial">2</tspan></text></g><g font-family="Bitstream Vera Sans"><text font-size="12" y="55.442" x="634.38" transform="translate(-576.997 340.111)"><tspan style="text-align:end" font-size="16" y="55.442" x="634.38" font-family="Arial" text-anchor="end">H</tspan></text><text font-size="7.053" y="50.564" x="634.89" transform="translate(-576.997 340.111)"><tspan font-size="9.404" y="50.564" x="634.89" font-family="Arial">1</tspan></text></g><path marker-mid="url(#a)" marker-end="url(#a)" d="M65.039 491.02l2.281-48.539 2.282-74.785v11.147l2.282-196.31 4.564 75.983 2.282-11.985 4.564-37.392 2.282-.479 2.282-19.775 2.282-32.838 2.282 9.228 2.282-.24 4.564-21.812 6.846 8.509 2.282-11.026 6.846-3.476 2.282-6.471 6.966-3.116 2.282-5.034 6.846-1.438 2.282-.599 6.846-1.079 4.564-2.277 4.564.599 2.282-1.677v1.917l11.41-2.876 6.846-4.554 6.846-.839 2.282-1.438 6.846.479 2.282-1.199 4.564 2.637 2.282-1.678 2.282-.479 6.846 1.198 2.282.719 2.282-.959 2.282-.119 4.564.24v2.397l4.564-.959 2.281.239 2.283-.599 4.564.24 2.281 1.079 6.847-.72 2.282 1.319 2.281-1.079 2.403.719 6.846-.959 2.282.839 2.282-.599h2.282l2.281-.959 4.564 1.079 6.847 1.918 2.281-.121 2.283.839 2.281-.239 4.564.838v1.079l9.128.12 2.282.959 4.564.599 2.282-.36 2.282 1.079 2.282-.479 2.282.719 6.846.24 4.564.479 2.282.719h6.846l4.564.48 2.282.958 4.564.48 9.128 1.198 2.282-.12 2.282.719h2.282l2.282.36 2.282-.24 2.282.839 11.53.719 2.282.599 2.282.121 2.282.958 2.282.359 4.564.84 2.282 1.078 13.692 2.757 2.281-.24 2.283.719h2.282l4.563.6 4.565.48 2.282.598 2.281.24 4.565.48 2.282.478 2.281.12 2.282.48 2.283.24 2.282.48 2.281.12 2.282.598 6.846.84 6.847 1.197 6.845.84 4.565.598 2.281.6 2.282.12 4.564.6 2.282.598c2.466 1.389 5.235 3.018 2.282.12l2.283.48 6.965.718 2.283.6 2.282-.12c1.211.6 4.345 3.078 2.281.48.898.142 4.95 2.65 2.282.12l2.283.358h2.282l2.281.48 6.847.48 4.563.36 2.282.478 4.565.36 2.282.12 4.565.36c.76.279 3.368 3.005 2.28 1.437l2.283.96 27.384 5.152 2.282.48 6.846.96 2.282.478 9.128 1.438 2.282.12 6.846 1.078 6.846.84" marker-start="url(#a)" stroke="#000" stroke-linecap="square" stroke-miterlimit="10" fill="none" transform="translate(-21.857 -92.039)"/><text transform="matrix(1.001 0 0 .99895 -21.857 -92.039)" font-size="12.013" y="533.057" x="370.417"><tspan style="text-align:center" font-size="16.017" y="533.057" x="370.417" font-family="Arial" class="st790 st1079" text-anchor="middle">Number of nucleons in nucleus</tspan></text><text transform="matrix(0 -.99895 1.0011 0 -21.857 -92.039)" font-size="11.987" y="33.47" x="-314.65"><tspan style="text-align:center" font-size="15.983" y="33.47" x="-314.65" font-family="Arial" class="st790 st1079" text-anchor="middle">Average binding energy per nucleon (MeV)</tspan></text><text font-size="12" y="103.539" x="48.181" font-family="Bitstream Vera Sans" transform="translate(-21.857 -92.039)"><tspan font-size="16" y="103.539" x="48.181" font-family="Arial">9</tspan></text><text font-size="12" y="146.703" x="48.173" font-family="Bitstream Vera Sans" transform="translate(-21.857 -92.039)"><tspan font-size="16" y="146.703" x="48.173" font-family="Arial">8</tspan></text><text font-size="12" y="190.327" x="48.056" font-family="Bitstream Vera Sans" transform="translate(-21.857 -92.039)"><tspan font-size="16" y="190.327" x="48.056" font-family="Arial">7</tspan></text><text font-size="12" y="233.959" x="48.095" font-family="Bitstream Vera Sans" transform="translate(-21.857 -92.039)"><tspan font-size="16" y="233.959" x="48.095" font-family="Arial">6</tspan></text><text font-size="12" y="277.697" x="48.166" font-family="Bitstream Vera Sans" transform="translate(-21.857 -92.039)"><tspan font-size="16" y="277.697" x="48.166" font-family="Arial">5</tspan></text><text font-size="12" y="321.113" x="48.146" font-family="Bitstream Vera Sans" transform="translate(-21.857 -92.039)"><tspan font-size="16" y="321.113" x="48.146" font-family="Arial">4</tspan></text><text font-size="12" y="364.736" x="48.24" font-family="Bitstream Vera Sans" transform="translate(-21.857 -92.039)"><tspan font-size="16" y="364.736" x="48.24" font-family="Arial">3</tspan></text><text font-size="12" y="408.24" x="48.166" font-family="Bitstream Vera Sans" transform="translate(-21.857 -92.039)"><tspan font-size="16" y="408.24" x="48.166" font-family="Arial">2</tspan></text><text font-size="12" y="451.945" x="48.935" font-family="Bitstream Vera Sans" transform="translate(-21.857 -92.039)"><tspan font-size="16" y="451.945" x="48.935" font-family="Arial">1</tspan></text><text font-size="12" y="495.587" x="48.173" font-family="Bitstream Vera Sans" transform="translate(-21.857 -92.039)"><tspan font-size="16" y="495.587" x="48.173" font-family="Arial">0</tspan></text><path d="M657.643 398.981V6.061H40.903v392.92h616.74z" stroke="#000" stroke-linecap="square" stroke-miterlimit="10" fill="none"/><text font-size="12" y="509.587" x="63.56" font-family="Bitstream Vera Sans" transform="translate(-21.857 -92.039)"><tspan style="text-align:center" font-size="16" y="509.587" x="63.56" font-family="Arial" text-anchor="middle">0</tspan></text><text font-size="12" y="509.587" x="132.162" font-family="Bitstream Vera Sans" transform="translate(-21.857 -92.039)"><tspan style="text-align:center" font-size="16" y="509.587" x="132.162" font-family="Arial" text-anchor="middle">30</tspan></text><text font-size="12" y="509.587" x="200.535" font-family="Bitstream Vera Sans" transform="translate(-21.857 -92.039)"><tspan style="text-align:center" font-size="16" y="509.587" x="200.535" font-family="Arial" text-anchor="middle">60</tspan></text><text font-size="12" y="509.587" x="269.043" font-family="Bitstream Vera Sans" transform="translate(-21.857 -92.039)"><tspan style="text-align:center" font-size="16" y="509.587" x="269.043" font-family="Arial" text-anchor="middle">90</tspan></text><text font-size="12" y="509.587" x="337.526" font-family="Bitstream Vera Sans" transform="translate(-21.857 -92.039)"><tspan style="text-align:center" font-size="16" y="509.587" x="337.526" font-family="Arial" text-anchor="middle">120</tspan></text><text font-size="12" y="509.587" x="406.104" font-family="Bitstream Vera Sans" transform="translate(-21.857 -92.039)"><tspan style="text-align:center" font-size="16" y="509.587" x="406.104" font-family="Arial" text-anchor="middle">150</tspan></text><text font-size="12" y="509.587" x="474.569" font-family="Bitstream Vera Sans" transform="translate(-21.857 -92.039)"><tspan style="text-align:center" font-size="16" y="509.587" x="474.569" font-family="Arial" text-anchor="middle">180</tspan></text><text font-size="12" y="509.587" x="542.804" font-family="Bitstream Vera Sans" transform="translate(-21.857 -92.039)"><tspan style="text-align:center" font-size="16" y="509.587" x="542.804" font-family="Arial" text-anchor="middle">210</tspan></text><text font-size="12" y="509.587" x="611.265" font-family="Bitstream Vera Sans" transform="translate(-21.857 -92.039)"><tspan style="text-align:center" font-size="16" y="509.587" x="611.265" font-family="Arial" text-anchor="middle">240</tspan></text><text font-size="12" y="509.587" x="679.843" font-family="Bitstream Vera Sans" transform="translate(-21.857 -92.039)"><tspan style="text-align:center" font-size="16" y="509.587" x="679.843" font-family="Arial" text-anchor="middle">270</tspan></text></svg>