<svg xmlns="http://www.w3.org/2000/svg" xmlns:xlink="http://www.w3.org/1999/xlink" width="297mm" height="210mm" viewBox="0 0 1052.362 744.094"><defs><linearGradient id="a"><stop offset="0"/><stop offset="1" stop-opacity="0"/></linearGradient><linearGradient xlink:href="#a" id="b" x1="439.987" y1="486.786" x2="505.407" y2="486.786" gradientUnits="userSpaceOnUse" gradientTransform="matrix(1.72008 0 0 1.73046 -195.791 -162.7)"/><linearGradient gradientTransform="matrix(-1.72008 0 0 1.73046 1535.95 -163.554)" xlink:href="#a" id="c" x1="439.987" y1="486.786" x2="505.407" y2="486.786" gradientUnits="userSpaceOnUse"/></defs><g stroke="#000" transform="translate(0 -308.268)"><path d="M57.9 370.017v631.538" fill="none" stroke-width="5.16"/><circle r="10.858" cy="679.025" cx="57.923" fill="none" stroke-width="3.909"/><circle r="338.833" cy="678.464" cx="671.245" fill="none" stroke-width="3.44"/><path d="M53.375 669.167l444.057-281.77m5.087 585.171L51.676 687.942" fill="none" stroke-width="3.44"/><path d="M561.042 358.344v640.14m217.829-639.91v640.139" fill="none" stroke-width="1.72"/><path d="M645.918 1017.042c-23.69-1.827-54.481-7.75-75.673-14.556l-7.372-2.368-.31-320.72-.31-320.72 15.668-4.435c30.727-8.698 51.375-11.82 84.471-12.776 36.17-1.043 70.157 3.206 102.59 12.827l11.673 3.462.31 321.607.309 321.606-8.296 2.48c-40.709 12.17-82.151 16.747-123.06 13.593z" fill="url(#b)" stroke-width="2.465"/><path d="M694.24 1016.188c23.69-1.826 54.481-7.749 75.673-14.556l7.372-2.368.31-320.72.31-320.72-15.668-4.435c-30.727-8.698-51.375-11.82-84.47-12.775-36.171-1.044-70.158 3.205-102.592 12.826l-11.672 3.462-.31 321.607-.309 321.607 8.296 2.48c40.709 12.169 82.151 16.747 123.06 13.592z" fill="url(#c)" stroke-width="2.465"/></g></svg>