<svg xmlns="http://www.w3.org/2000/svg" width="190.488" height="1.8mm" viewBox="0 0 50.4 1.8"><g style="line-height:1.25"><path d="M15.897.551v.122q-.056-.031-.112-.047-.056-.015-.115-.015-.087 0-.13.027-.044.028-.044.084 0 .05.033.075.032.025.16.049l.052.01q.097.017.146.07.05.053.05.137 0 .113-.083.176-.083.063-.23.063-.059 0-.123-.012t-.138-.035v-.129q.072.036.138.054.066.018.125.018.086 0 .133-.033.047-.034.047-.094 0-.087-.172-.12h-.006L15.58.94q-.112-.022-.163-.071-.051-.05-.051-.136 0-.109.076-.168.077-.059.219-.059.063 0 .121.011.058.011.115.034zm.318.444V.526h.13v.47q0 .101.037.15.038.047.117.047.09 0 .14-.061.048-.062.048-.178V.526h.13v.756h-.13v-.114q-.035.066-.094.1-.06.033-.139.033-.12 0-.18-.075-.059-.077-.059-.23zm1.331-.373V.23h.13v1.052h-.13v-.095q-.032.056-.086.085-.053.03-.124.03-.142 0-.224-.107-.082-.106-.082-.294 0-.184.082-.289.083-.105.224-.105.071 0 .125.03.055.028.085.085zm-.38.282q0 .145.048.218.048.074.141.074.094 0 .142-.074.05-.075.05-.218 0-.144-.05-.218-.048-.074-.142-.074-.093 0-.14.074-.049.073-.049.218zm1.076-.292q-.098 0-.15.074-.05.073-.05.218 0 .144.05.218.052.074.15.074.099 0 .15-.074.05-.074.05-.218 0-.145-.05-.218-.051-.074-.15-.074zm0-.105q.163 0 .25.102t.087.295q0 .194-.086.296-.087.101-.251.101t-.25-.1q-.087-.103-.087-.297 0-.193.087-.295.086-.102.25-.102zm1.561.68v.383h-.13V.525h.13V.62q.033-.056.086-.085.054-.03.124-.03.143 0 .224.107.081.106.081.294 0 .184-.081.29-.082.104-.224.104-.071 0-.125-.029-.054-.03-.085-.085zm.38-.283q0-.145-.048-.218-.047-.074-.14-.074-.095 0-.143.074-.049.074-.049.218 0 .143.049.218.048.074.142.074.094 0 .14-.074.049-.073.049-.218zm.715-.003h-.043q-.113 0-.17.039-.057.038-.057.113 0 .069.043.107.043.037.118.037.107 0 .168-.07.061-.072.062-.198V.901zM21.15.85v.432h-.13V1.17q-.041.067-.105.1-.062.031-.152.031-.12 0-.192-.064-.071-.066-.071-.175 0-.127.087-.192.089-.066.26-.066h.173v-.02q0-.09-.048-.13-.047-.042-.15-.042-.066 0-.133.018-.068.019-.132.054V.559q.072-.026.137-.039.066-.013.128-.013.098 0 .166.027.07.028.113.083.027.034.038.084t.011.149zm.866.393q-.052.03-.108.044-.055.015-.112.015-.183 0-.286-.106-.103-.105-.103-.292 0-.186.103-.292.103-.105.286-.105.057 0 .11.014.055.014.11.044v.13q-.052-.044-.104-.063-.05-.02-.116-.02-.122 0-.187.076t-.065.216q0 .14.065.216.066.076.187.076.067 0 .12-.02.054-.02.1-.062zm.594-.641q.025-.049.061-.072.037-.023.09-.023.094 0 .133.07.04.07.04.266v.439h-.119V.849q0-.16-.019-.2-.018-.038-.067-.038-.057 0-.078.042-.02.04-.02.196v.433h-.118V.849q0-.163-.02-.2-.02-.038-.072-.038-.051 0-.072.042-.02.04-.02.196v.433h-.117V.525h.118V.59q.023-.04.057-.062.035-.021.08-.021.053 0 .088.023.036.024.056.072zm.884.299h-.043q-.113 0-.17.039-.057.038-.057.113 0 .069.043.107.043.037.118.037.107 0 .168-.07.061-.072.062-.198V.901zm.251-.051v.432h-.13V1.17q-.041.067-.105.1-.062.031-.152.031-.12 0-.192-.064-.071-.066-.071-.175 0-.127.087-.192.089-.066.26-.066h.173v-.02q0-.09-.048-.13-.047-.042-.15-.042-.066 0-.133.018-.068.019-.132.054V.559q.072-.026.137-.039.066-.013.128-.013.098 0 .166.027.07.028.113.083.027.034.038.084t.011.149zm.86-.037v.469h-.13v-.47q0-.101-.037-.15Q24.4.616 24.32.616q-.09 0-.14.062-.048.061-.048.177v.428h-.13V.525h.13v.113q.034-.064.093-.098.06-.033.14-.033.12 0 .179.076.06.076.06.23zm1.064-.02h.744v.114h-.744zm1.504-.486v.139q-.064-.04-.13-.06-.064-.02-.13-.02-.1 0-.159.045-.058.044-.058.12 0 .068.038.103.038.035.143.059l.074.016q.148.033.215.104.068.07.068.193 0 .144-.093.22-.093.076-.27.076-.073 0-.148-.016-.074-.015-.15-.045v-.146q.081.05.153.073.072.023.145.023.108 0 .167-.046.06-.047.06-.13 0-.076-.041-.116-.041-.04-.143-.061L26.838.82q-.146-.032-.212-.096T26.56.553q0-.136.094-.217.095-.081.252-.081.06 0 .127.013t.14.04zm1.242.221h.331v.657h.256v.097h-.642v-.097h.257v-.56h-.202zm.202-.294h.129V.39h-.13zm1.18.579v.469h-.13v-.47q0-.101-.037-.15-.038-.047-.117-.047-.09 0-.14.062-.048.061-.048.177v.428h-.13V.525h.13v.113q.034-.064.093-.098.06-.033.14-.033.12 0 .179.076.06.076.06.23zm.873.43q-.053.03-.108.044-.055.015-.113.015-.182 0-.286-.106-.102-.105-.102-.292 0-.186.102-.292.104-.105.286-.105.057 0 .111.014t.11.044v.13q-.052-.044-.104-.063-.051-.02-.117-.02-.121 0-.187.076-.065.076-.065.216t.065.216q.066.076.187.076.068 0 .121-.02.053-.02.1-.062zm.803-.692v.122q-.056-.031-.112-.047-.056-.015-.115-.015-.087 0-.13.027-.044.028-.044.084 0 .05.033.075.032.025.16.049l.052.01q.097.017.146.07.05.053.05.137 0 .113-.083.176-.083.063-.23.063-.059 0-.123-.012t-.138-.035v-.129q.072.036.138.054.066.018.125.018.086 0 .133-.033.047-.034.047-.094 0-.087-.172-.12h-.006l-.048-.01q-.112-.022-.163-.071-.051-.05-.051-.136 0-.109.076-.168.077-.059.219-.059.063 0 .121.011.058.011.115.034zm.927.692q-.052.03-.108.044-.054.015-.112.015-.183 0-.286-.106-.102-.105-.102-.292 0-.186.102-.292.103-.105.286-.105.057 0 .11.014.055.014.11.044v.13q-.051-.044-.103-.063-.052-.02-.117-.02-.122 0-.187.076t-.065.216q0 .14.065.216.066.076.187.076.067 0 .12-.02.054-.02.1-.062zm.613-.342h-.043q-.113 0-.17.039-.057.038-.057.113 0 .069.042.107.043.037.12.037.106 0 .167-.07.061-.072.062-.198V.901zm.25-.051v.432h-.13V1.17q-.04.067-.104.1-.062.031-.152.031-.12 0-.192-.064-.072-.066-.072-.175 0-.127.088-.192.089-.066.26-.066h.173v-.02q0-.09-.048-.13-.047-.042-.15-.042-.066 0-.134.018-.067.019-.131.054V.559q.072-.026.137-.039.066-.013.128-.013.097 0 .166.027.07.028.113.083.026.034.037.084.012.05.012.149zm.386.337v.383h-.13V.525h.13V.62q.032-.056.085-.085.054-.03.125-.03.142 0 .223.107.081.106.081.294 0 .184-.081.29-.081.104-.223.104-.072 0-.126-.029-.053-.03-.084-.085zm.379-.283q0-.145-.048-.218-.047-.074-.14-.074-.094 0-.143.074-.048.074-.048.218 0 .143.048.218.049.074.143.074.093 0 .14-.074.048-.073.048-.218zm1.009-.063v.061h-.56v.004q-.005.155.062.222.067.068.19.068.061 0 .128-.019.068-.019.144-.058v.124q-.073.03-.142.043-.068.015-.132.015-.184 0-.287-.105-.103-.106-.103-.292 0-.181.101-.29.101-.108.27-.108.15 0 .237.098t.092.237zm-.129-.036Q34.9.726 34.848.67q-.05-.058-.146-.058-.093 0-.154.06-.06.059-.066.133z" style="-inkscape-font-specification:'Menlo, Normal';font-variant-ligatures:normal;font-variant-caps:normal;font-variant-numeric:normal;font-feature-settings:normal;text-align:start" aria-label="sudo pacman -S incscape" font-weight="400" font-size="1.411" font-family="Menlo" letter-spacing="0" word-spacing="0" stroke-width=".27"/></g></svg>