<svg xmlns="http://www.w3.org/2000/svg" width="700" height="400" version="1"><defs><marker orient="auto" id="a" overflow="visible"><path d="M-10 0l-4 4L0 0l-14-4 4 4z" fill-rule="evenodd" stroke="#000" stroke-width=".8pt"/></marker></defs><path d="M119.42 996.71V635.618M86.562 961.71h633.774" fill="none" stroke="#000" marker-end="url(#a)" transform="translate(-43.827 -607.27)"/><path d="M127.099 961.13c204.169-178.16 248.121-38.303 371.606-325.135" fill="none" stroke="#000" stroke-width="2" stroke-linecap="round" stroke-dasharray="48,48" marker-end="url(#a)" transform="translate(-43.827 -607.27)"/><path d="M161.07 960.995l427.635-273.571" fill="none" stroke="#000" stroke-width="2" stroke-linecap="round" stroke-linejoin="bevel" marker-end="url(#a)" transform="translate(-43.827 -607.27)"/><path d="M230.133 961.71s52.05-153.244 424.286-240.715" fill="none" stroke="#000" stroke-width="2" stroke-dasharray="16,4,2,4" marker-end="url(#a)" transform="translate(-43.827 -607.27)"/><path d="M253.705 960.995s2.5-181.071 451.428-202.857" fill="none" stroke="#000" stroke-width="2" stroke-dasharray="2,6" marker-end="url(#a)" transform="translate(-43.827 -607.27)"/><path d="M290.26 958.504c-9.286-122.143 158.005-211.526 180 0" fill="none" stroke="#000" stroke-width="2" stroke-dasharray="2,4" marker-end="url(#a)" transform="translate(-43.827 -607.27)"/><text style="-inkscape-font-specification:Sans" x="384.773" y="993.873" font-size="16" font-weight="400" font-family="Sans" transform="translate(-43.827 -607.27)"><tspan x="384.773" y="993.873">TIME</tspan></text><text x="-897.547" y="78.693" transform="rotate(-90 -325.549 -281.722)" font-size="20" font-weight="400" font-family="Charis SIL"><tspan x="-897.547" y="78.693" style="-inkscape-font-specification:Sans" font-size="16" font-family="Sans">AVERAGE DISTANCE</tspan><tspan x="-897.547" y="98.693" style="-inkscape-font-specification:Sans" font-size="16" font-family="Sans">BETWEEN GALAXIES</tspan></text><text style="-inkscape-font-specification:Sans" x="327.293" y="823.464" font-size="16" font-weight="400" font-family="Sans" transform="translate(-43.827 -607.27)"><tspan x="327.293" y="823.464">NOW</tspan></text><text style="-inkscape-font-specification:Sans" x="445.847" y="629.207" font-size="16" font-weight="400" font-family="Sans" transform="translate(-43.827 -607.27)"><tspan x="445.847" y="629.207">ACCELERATING</tspan></text><path d="M316.302 234.182a10.86 10.86 0 1 1-21.718 0 10.86 10.86 0 1 1 21.718 0z" fill-opacity=".961"/><text style="-inkscape-font-specification:Sans" x="561.168" y="682.238" font-size="16" font-weight="400" font-family="Sans" transform="translate(-43.827 -607.27)"><tspan x="561.168" y="682.238">立=0</tspan></text><text style="-inkscape-font-specification:Sans" x="624.254" y="712.498" font-size="16" font-weight="400" font-family="Sans" transform="translate(-43.827 -607.27)"><tspan x="624.254" y="712.498">立&lt;1</tspan></text><text style="-inkscape-font-specification:Sans" x="673.835" y="745.304" font-size="16" font-weight="400" font-family="Sans" transform="translate(-43.827 -607.27)"><tspan x="673.835" y="745.304">立=1</tspan></text><text style="-inkscape-font-specification:Sans" x="478.59" y="949.345" font-size="16" font-weight="400" font-family="Sans" transform="translate(-43.827 -607.27)"><tspan x="478.59" y="949.345">立&gt;1</tspan></text></svg>