<svg xmlns="http://www.w3.org/2000/svg" version="1" width="800" height="500"><g fill-rule="evenodd"><path d="M49.625 77.313l-1.406 1.406 90.719 91.437 1.406-1.406-90.719-91.438z" stroke-width="2"/><path d="M125.547 155.259l-11.313-.045 25.4 14.242-14.042-25.511-.045 11.314z" stroke="#000" stroke-width="1.6pt"/><path d="M129.625 158.031l-1.406 1.406 72.125 71.438 1.437-1.406-72.156-71.438z" stroke-width="2"/><path d="M200.406 228.656l-.5 128.781 2 .032.5-128.813h-2z" stroke-width="2"/><path d="M200.993 337.455l-7.969-8.031 7.89 28.03 8.11-27.967-8.031 7.968z" stroke="#000" stroke-width="1.6pt"/><path d="M199.906 342.313l.5 101.5h2l-.5-101.5h-2zm153.313-265L262.5 168.75l1.406 1.406 90.719-91.437-1.406-1.406z" stroke-width="2"/><path d="M277.292 155.259l-.045-11.314-14.042 25.511 25.4-14.242-11.313.045z" stroke="#000" stroke-width="1.6pt"/><path d="M273.219 158.031l-72.156 71.438 1.406 1.406 72.156-71.438-1.406-1.406z" stroke-width="2"/></g><g fill="none" stroke="#000" stroke-linejoin="round"><path d="M504.788 82.158c0 14.073-22.816 25.48-50.961 25.48-28.146 0-50.962-11.407-50.962-25.48s22.816-25.481 50.962-25.481c28.145 0 50.961 11.408 50.961 25.48zm245.457 0c0 14.073-22.817 25.48-50.962 25.48-28.145 0-50.962-11.407-50.962-25.48s22.817-25.481 50.962-25.481c28.145 0 50.962 11.408 50.962 25.48zM629.037 407.427c0 14.073-22.816 25.48-50.962 25.48-28.145 0-50.961-11.407-50.961-25.48s22.816-25.48 50.961-25.48c28.146 0 50.962 11.407 50.962 25.48z" fill-opacity=".831" stroke-width="3"/><path d="M504.84 80.138c1.737 27.151 45.161 103.035 74.75 103.035 28.876 0 68.856-70.445 68.803-101.015m-245.579 2.02c.724 28.486 32.185 68.15 61.62 107.076 35.25 43.222 61.206 85.728 61.618 126.27 1.709 31.158 3.884 63.264 0 90.913M751.08 84.178c-.724 28.486-32.185 68.15-61.619 107.076-35.251 43.222-61.206 85.728-61.62 126.27-1.707 31.158-3.882 63.264 0 90.913" fill-rule="evenodd" stroke-width="2" stroke-linecap="round"/></g></svg>